<svg width="50" height="50" viewBox="0 0 50 50" fill="none" xmlns="http://www.w3.org/2000/svg">
<path d="M25 20C23.6739 20 22.4021 20.5268 21.4645 21.4645C20.5268 22.4021 20 23.6739 20 25C20 26.3261 20.5268 27.5979 21.4645 28.5355C22.4021 29.4732 23.6739 30 25 30C26.3261 30 27.5979 29.4732 28.5355 28.5355C29.4732 27.5979 30 26.3261 30 25C30 23.6739 29.4732 22.4021 28.5355 21.4645C27.5979 20.5268 26.3261 20 25 20ZM25 8.75C24.5075 8.75 24.0199 8.847 23.5649 9.03545C23.11 9.22391 22.6966 9.50013 22.3483 9.84835C22.0001 10.1966 21.7239 10.61 21.5355 11.0649C21.347 11.5199 21.25 12.0075 21.25 12.5C21.25 12.9925 21.347 13.4801 21.5355 13.9351C21.7239 14.39 22.0001 14.8034 22.3483 15.1517C22.6966 15.4999 23.11 15.7761 23.5649 15.9645C24.0199 16.153 24.5075 16.25 25 16.25C25.4925 16.25 25.9801 16.153 26.4351 15.9645C26.89 15.7761 27.3034 15.4999 27.6517 15.1517C27.9999 14.8034 28.2761 14.39 28.4645 13.9351C28.653 13.4801 28.75 12.9925 28.75 12.5C28.75 12.0075 28.653 11.5199 28.4645 11.0649C28.2761 10.61 27.9999 10.1966 27.6517 9.84835C27.3034 9.50013 26.89 9.22391 26.4351 9.03545C25.9801 8.847 25.4925 8.75 25 8.75ZM25 33.75C24.0054 33.75 23.0516 34.1451 22.3483 34.8484C21.6451 35.5516 21.25 36.5054 21.25 37.5C21.25 38.4946 21.6451 39.4484 22.3483 40.1516C23.0516 40.8549 24.0054 41.25 25 41.25C25.9946 41.25 26.9484 40.8549 27.6517 40.1516C28.3549 39.4484 28.75 38.4946 28.75 37.5C28.75 36.5054 28.3549 35.5516 27.6517 34.8484C26.9484 34.1451 25.9946 33.75 25 33.75ZM37.5 21.25C36.5054 21.25 35.5516 21.6451 34.8484 22.3483C34.1451 23.0516 33.75 24.0054 33.75 25C33.75 25.9946 34.1451 26.9484 34.8484 27.6517C35.5516 28.3549 36.5054 28.75 37.5 28.75C38.4946 28.75 39.4484 28.3549 40.1516 27.6517C40.8549 26.9484 41.25 25.9946 41.25 25C41.25 24.0054 40.8549 23.0516 40.1516 22.3483C39.4484 21.6451 38.4946 21.25 37.5 21.25ZM12.5 21.25C11.5054 21.25 10.5516 21.6451 9.84835 22.3483C9.14509 23.0516 8.75 24.0054 8.75 25C8.75 25.9946 9.14509 26.9484 9.84835 27.6517C10.5516 28.3549 11.5054 28.75 12.5 28.75C13.4946 28.75 14.4484 28.3549 15.1517 27.6517C15.8549 26.9484 16.25 25.9946 16.25 25C16.25 24.0054 15.8549 23.0516 15.1517 22.3483C14.4484 21.6451 13.4946 21.25 12.5 21.25ZM25 0C24.337 0 23.7011 0.263392 23.2322 0.732233C22.7634 1.20107 22.5 1.83696 22.5 2.5C22.5 3.16304 22.7634 3.79893 23.2322 4.26777C23.7011 4.73661 24.337 5 25 5C25.663 5 26.2989 4.73661 26.7678 4.26777C27.2366 3.79893 27.5 3.16304 27.5 2.5C27.5 1.83696 27.2366 1.20107 26.7678 0.732233C26.2989 0.263392 25.663 0 25 0ZM25 45C24.337 45 23.7011 45.2634 23.2322 45.7322C22.7634 46.2011 22.5 46.837 22.5 47.5C22.5 48.163 22.7634 48.7989 23.2322 49.2678C23.7011 49.7366 24.337 50 25 50C25.663 50 26.2989 49.7366 26.7678 49.2678C27.2366 48.7989 27.5 48.163 27.5 47.5C27.5 46.837 27.2366 46.2011 26.7678 45.7322C26.2989 45.2634 25.663 45 25 45ZM47.5 22.5C46.837 22.5 46.2011 22.7634 45.7322 23.2322C45.2634 23.7011 45 24.337 45 25C45 25.663 45.2634 26.2989 45.7322 26.7678C46.2011 27.2366 46.837 27.5 47.5 27.5C48.163 27.5 48.7989 27.2366 49.2678 26.7678C49.7366 26.2989 50 25.663 50 25C50 24.337 49.7366 23.7011 49.2678 23.2322C48.7989 22.7634 48.163 22.5 47.5 22.5ZM2.5 22.5C1.83696 22.5 1.20107 22.7634 0.732233 23.2322C0.263392 23.7011 0 24.337 0 25C0 25.663 0.263392 26.2989 0.732233 26.7678C1.20107 27.2366 1.83696 27.5 2.5 27.5C3.16304 27.5 3.79893 27.2366 4.26777 26.7678C4.73661 26.2989 5 25.663 5 25C5 24.337 4.73661 23.7011 4.26777 23.2322C3.79893 22.7634 3.16304 22.5 2.5 22.5ZM35 12.5C35 11.125 36.125 10 37.5 10C38.875 10 40 11.125 40 12.5C40 13.875 38.875 15 37.5 15C36.125 15 35 13.875 35 12.5ZM12.5 35C11.837 35 11.2011 35.2634 10.7322 35.7322C10.2634 36.2011 10 36.837 10 37.5C10 38.163 10.2634 38.7989 10.7322 39.2678C11.2011 39.7366 11.837 40 12.5 40C13.163 40 13.7989 39.7366 14.2678 39.2678C14.7366 38.7989 15 38.163 15 37.5C15 36.837 14.7366 36.2011 14.2678 35.7322C13.7989 35.2634 13.163 35 12.5 35ZM37.5 35C36.837 35 36.2011 35.2634 35.7322 35.7322C35.2634 36.2011 35 36.837 35 37.5C35 38.163 35.2634 38.7989 35.7322 39.2678C36.2011 39.7366 36.837 40 37.5 40C38.163 40 38.7989 39.7366 39.2678 39.2678C39.7366 38.7989 40 38.163 40 37.5C40 36.837 39.7366 36.2011 39.2678 35.7322C38.7989 35.2634 38.163 35 37.5 35ZM12.5 10C11.837 10 11.2011 10.2634 10.7322 10.7322C10.2634 11.2011 10 11.837 10 12.5C10 13.163 10.2634 13.7989 10.7322 14.2678C11.2011 14.7366 11.837 15 12.5 15C13.163 15 13.7989 14.7366 14.2678 14.2678C14.7366 13.7989 15 13.163 15 12.5C15 11.837 14.7366 11.2011 14.2678 10.7322C13.7989 10.2634 13.163 10 12.5 10ZM13.75 2.5C13.4185 2.5 13.1005 2.6317 12.8661 2.86612C12.6317 3.10054 12.5 3.41848 12.5 3.75C12.5 4.08152 12.6317 4.39946 12.8661 4.63388C13.1005 4.8683 13.4185 5 13.75 5C14.0815 5 14.3995 4.8683 14.6339 4.63388C14.8683 4.39946 15 4.08152 15 3.75C15 3.41848 14.8683 3.10054 14.6339 2.86612C14.3995 2.6317 14.0815 2.5 13.75 2.5ZM3.75 12.5C3.41848 12.5 3.10054 12.6317 2.86612 12.8661C2.6317 13.1005 2.5 13.4185 2.5 13.75C2.5 14.0815 2.6317 14.3995 2.86612 14.6339C3.10054 14.8683 3.41848 15 3.75 15C4.08152 15 4.39946 14.8683 4.63388 14.6339C4.8683 14.3995 5 14.0815 5 13.75C5 13.4185 4.8683 13.1005 4.63388 12.8661C4.39946 12.6317 4.08152 12.5 3.75 12.5ZM46.25 12.5C45.9185 12.5 45.6005 12.6317 45.3661 12.8661C45.1317 13.1005 45 13.4185 45 13.75C45 14.0815 45.1317 14.3995 45.3661 14.6339C45.6005 14.8683 45.9185 15 46.25 15C46.5815 15 46.8995 14.8683 47.1339 14.6339C47.3683 14.3995 47.5 14.0815 47.5 13.75C47.5 13.4185 47.3683 13.1005 47.1339 12.8661C46.8995 12.6317 46.5815 12.5 46.25 12.5ZM36.25 2.5C35.9185 2.5 35.6005 2.6317 35.3661 2.86612C35.1317 3.10054 35 3.41848 35 3.75C35 4.08152 35.1317 4.39946 35.3661 4.63388C35.6005 4.8683 35.9185 5 36.25 5C36.5815 5 36.8995 4.8683 37.1339 4.63388C37.3683 4.39946 37.5 4.08152 37.5 3.75C37.5 3.41848 37.3683 3.10054 37.1339 2.86612C36.8995 2.6317 36.5815 2.5 36.25 2.5ZM36.25 45C35.9185 45 35.6005 45.1317 35.3661 45.3661C35.1317 45.6005 35 45.9185 35 46.25C35 46.5815 35.1317 46.8995 35.3661 47.1339C35.6005 47.3683 35.9185 47.5 36.25 47.5C36.5815 47.5 36.8995 47.3683 37.1339 47.1339C37.3683 46.8995 37.5 46.5815 37.5 46.25C37.5 45.9185 37.3683 45.6005 37.1339 45.3661C36.8995 45.1317 36.5815 45 36.25 45ZM46.25 35C45.9185 35 45.6005 35.1317 45.3661 35.3661C45.1317 35.6005 45 35.9185 45 36.25C45 36.5815 45.1317 36.8995 45.3661 37.1339C45.6005 37.3683 45.9185 37.5 46.25 37.5C46.5815 37.5 46.8995 37.3683 47.1339 37.1339C47.3683 36.8995 47.5 36.5815 47.5 36.25C47.5 35.9185 47.3683 35.6005 47.1339 35.3661C46.8995 35.1317 46.5815 35 46.25 35ZM3.75 35C3.41848 35 3.10054 35.1317 2.86612 35.3661C2.6317 35.6005 2.5 35.9185 2.5 36.25C2.5 36.5815 2.6317 36.8995 2.86612 37.1339C3.10054 37.3683 3.41848 37.5 3.75 37.5C4.08152 37.5 4.39946 37.3683 4.63388 37.1339C4.8683 36.8995 5 36.5815 5 36.25C5 35.9185 4.8683 35.6005 4.63388 35.3661C4.39946 35.1317 4.08152 35 3.75 35ZM13.75 45C13.4185 45 13.1005 45.1317 12.8661 45.3661C12.6317 45.6005 12.5 45.9185 12.5 46.25C12.5 46.5815 12.6317 46.8995 12.8661 47.1339C13.1005 47.3683 13.4185 47.5 13.75 47.5C14.0815 47.5 14.3995 47.3683 14.6339 47.1339C14.8683 46.8995 15 46.5815 15 46.25C15 45.9185 14.8683 45.6005 14.6339 45.3661C14.3995 45.1317 14.0815 45 13.75 45Z" fill="#007FFF"/>
</svg>
