<svg width="100" height="69" viewBox="0 0 100 69" fill="none" xmlns="http://www.w3.org/2000/svg">
<path d="M50 0C37.125 0 27 9.78125 25.5844 22.2656C22.862 22.706 20.3091 23.8734 18.1952 25.6446C16.0814 27.4157 14.4851 29.7249 13.575 32.3281C5.8875 34.5438 0 41.4 0 50C0 60.3875 8.3625 68.75 18.75 68.75H81.25C91.6375 68.75 100 60.3875 100 50C100 44.5 97.3281 39.575 93.4563 36.1313C92.7313 25.15 83.9719 16.3875 72.95 15.8188C69.1875 6.66563 60.5562 0 50 0ZM50 6.25C58.6313 6.25 65.5312 11.7812 67.9688 19.625L68.6562 21.875H71.875C80.4844 21.875 87.5 28.8906 87.5 37.5V39.0625L88.7688 40.0406C90.3 41.2142 91.5443 42.7207 92.4073 44.4462C93.2703 46.1717 93.7294 48.0709 93.75 50C93.75 57.1125 88.3625 62.5 81.25 62.5H18.75C11.6375 62.5 6.25 57.1125 6.25 50C6.25 43.6875 10.7812 38.7875 16.5 37.7938L18.5531 37.4031L18.9437 35.3469C19.8812 31.1375 23.6125 28.125 28.125 28.125H31.25V25C31.25 14.4688 39.4688 6.25 50 6.25ZM50 23.7312L47.75 25.8781L35.25 38.3781L39.75 42.8781L46.875 35.7406V56.25H53.125V35.7406L60.25 42.8719L64.75 38.3719L52.25 25.8719L50 23.7312Z" fill="#003366"/>
</svg>
