<svg width="50" height="50" viewBox="0 0 50 50" fill="none" xmlns="http://www.w3.org/2000/svg">
<path fill-rule="evenodd" clip-rule="evenodd" d="M25 0C38.8075 0 50 11.1925 50 25C50 38.8075 38.8075 50 25 50C11.1925 50 0 38.8075 0 25C0 11.1925 11.1925 0 25 0ZM32 29.6425C30.1336 31.479 27.6184 32.5057 25 32.5C22.3816 32.5057 19.8664 31.479 18 29.6425C17.7668 29.4072 17.4891 29.2206 17.1831 29.0936C16.8771 28.9665 16.5489 28.9016 16.2176 28.9025C15.8863 28.9034 15.5585 28.9702 15.2532 29.0989C14.9479 29.2276 14.6713 29.4157 14.4393 29.6523C14.2074 29.8889 14.0248 30.1692 13.9021 30.477C13.7795 30.7848 13.7192 31.1138 13.7249 31.4451C13.7305 31.7764 13.8019 32.1032 13.935 32.4066C14.0681 32.71 14.2601 32.984 14.5 33.2125C17.301 35.9653 21.0727 37.5055 25 37.5C28.9273 37.5055 32.699 35.9653 35.5 33.2125C35.9624 32.746 36.2227 32.1162 36.2245 31.4594C36.2263 30.8025 35.9695 30.1714 35.5097 29.7023C35.0498 29.2333 34.4239 28.9641 33.7671 28.9529C33.1103 28.9417 32.4756 29.1894 32 29.6425ZM16.25 15C15.2554 15 14.3016 15.3951 13.5983 16.0983C12.8951 16.8016 12.5 17.7554 12.5 18.75C12.5 19.7446 12.8951 20.6984 13.5983 21.4017C14.3016 22.1049 15.2554 22.5 16.25 22.5C17.2446 22.5 18.1984 22.1049 18.9017 21.4017C19.6049 20.6984 20 19.7446 20 18.75C20 17.7554 19.6049 16.8016 18.9017 16.0983C18.1984 15.3951 17.2446 15 16.25 15ZM33.75 15C32.7554 15 31.8016 15.3951 31.0983 16.0983C30.3951 16.8016 30 17.7554 30 18.75C30 19.7446 30.3951 20.6984 31.0983 21.4017C31.8016 22.1049 32.7554 22.5 33.75 22.5C34.7446 22.5 35.6984 22.1049 36.4016 21.4017C37.1049 20.6984 37.5 19.7446 37.5 18.75C37.5 17.7554 37.1049 16.8016 36.4016 16.0983C35.6984 15.3951 34.7446 15 33.75 15Z" fill="#007FFF"/>
</svg>
