<svg width="32" height="32" viewBox="0 0 32 32" fill="none" xmlns="http://www.w3.org/2000/svg">
<path d="M14.8571 24.176V4.40457L9.53143 9.73029L7.91314 8.08914L16 0L24.0891 8.08914L22.4709 9.73257L17.1429 4.40457V24.176H14.8571ZM3.69371 32C2.64076 32 1.76229 31.648 1.05829 30.944C0.354285 30.24 0.00152381 29.3608 0 28.3063V22.768H2.28571V28.3063C2.28571 28.6583 2.432 28.9813 2.72457 29.2754C3.01714 29.5695 3.33943 29.7158 3.69143 29.7143H28.3086C28.659 29.7143 28.9813 29.568 29.2754 29.2754C29.5695 28.9829 29.7158 28.6598 29.7143 28.3063V22.768H32V28.3063C32 29.3592 31.648 30.2377 30.944 30.9417C30.24 31.6457 29.3608 31.9985 28.3063 32H3.69371Z" fill="black"/>
</svg>
