<svg width="50" height="45" viewBox="0 0 50 45" fill="none" xmlns="http://www.w3.org/2000/svg">
<path d="M34.3628 25.4547L32.9669 23.91L37.0974 19.3282L32.9669 14.8009L34.3628 13.2453L38.5032 17.8271L42.5942 13.2453L44 14.8009L39.8991 19.3282L44 23.91L42.5942 25.4547L38.5032 20.9275L34.3628 25.4547ZM13.6155 21.5275C12.4628 20.2504 11.8864 18.7064 11.8864 16.8955C11.8864 15.0846 12.4628 13.5406 13.6155 12.2635C14.7683 10.9864 16.1635 10.3486 17.8013 10.35C19.439 10.3515 20.8343 10.9893 21.987 12.2635C23.1397 13.5376 23.7161 15.0816 23.7161 16.8955C23.7161 18.7093 23.1397 20.2533 21.987 21.5275C20.8343 22.8016 19.439 23.4395 17.8013 23.4409C16.1635 23.4424 14.7683 22.8046 13.6155 21.5275ZM4 37.35V34.2082C4 33.3078 4.3155 32.374 4.78868 31.59C5.26318 30.8046 6.35414 29.9289 7.15461 29.4955C9.01581 28.5078 10.4958 27.894 12.3597 27.4009C14.2222 26.9064 15.9361 26.8773 17.8013 26.8773C19.6664 26.8773 21.3791 26.9064 23.2429 27.4009C25.1068 27.8955 26.5894 28.5093 28.448 29.4955C29.2498 29.9289 30.3407 30.8046 30.8139 31.59C31.2884 32.374 31.6025 33.3078 31.6025 34.2082V37.35H4ZM5.97161 35.2555H29.6309V33.6846C29.6309 33.2016 29.677 33.0635 29.3944 32.6373C29.1131 32.2126 27.9998 31.478 27.5016 31.1842C25.8796 30.3144 24.9622 29.958 23.2429 29.4955C21.5237 29.0329 19.5652 29.0482 17.8013 29.0482C16.0373 29.0482 14.0789 29.0329 12.3597 29.4955C10.6404 29.958 9.72296 30.1966 8.10099 31.0664C7.60151 31.3602 6.48821 32.2126 6.20824 32.6373C5.92564 33.0635 5.97161 33.7238 5.97161 34.2082V35.2555ZM20.5871 19.9762C21.3587 19.1224 21.7445 18.0955 21.7445 16.8955C21.7445 15.6955 21.3587 14.6678 20.5871 13.8126C19.8156 12.9573 18.887 12.5304 17.8013 12.5318C16.7156 12.5333 15.7876 12.9602 15.0173 13.8126C14.2471 14.6649 13.8607 15.6926 13.858 16.8955C13.8554 18.0984 14.2418 19.1253 15.0173 19.9762C15.7928 20.8271 16.7208 21.2547 17.8013 21.2591C18.8817 21.2635 19.8103 20.8358 20.5871 19.9762Z" fill="#1E65BE"/>
</svg>
