<svg width="36" height="36" viewBox="0 0 36 36" fill="none" xmlns="http://www.w3.org/2000/svg">
<path d="M18 2.7696C22.9027 2.7696 26.7907 6.97017 26.7907 12.0385C26.7907 15.1959 26.054 16.8041 25.1196 18.2664C24.9075 18.5939 24.6748 18.9385 24.4214 19.3004C23.544 20.5652 22.4891 22.0885 21.7407 24.2839C21.5879 24.7365 21.3897 25.1688 21.1496 25.5727L21.0558 25.7204C20.8508 26.0438 20.6151 26.3422 20.3526 26.6103C19.6727 27.2972 18.8556 27.696 18 27.696C17.146 27.696 16.3273 27.2972 15.6458 26.6103C15.3832 26.3416 15.1474 26.0426 14.9425 25.7185L14.8504 25.5708C14.6105 25.1675 14.4122 24.7358 14.2593 24.2839C13.5109 22.0867 12.456 20.5652 11.5786 19.2986C11.3398 18.9589 11.107 18.6142 10.8804 18.2646C9.94772 16.8059 9.2093 15.1959 9.2093 12.0367C9.2093 6.97017 13.099 2.7696 18 2.7696ZM23.3029 26.9925C23.6244 26.4386 23.8889 25.8533 24.0915 25.2569C24.6977 23.4788 25.4612 22.3728 26.2984 21.1635C26.5831 20.7517 26.8761 20.327 27.1741 19.8599C28.363 17.9987 29.3023 15.844 29.3023 12.0367C29.3023 5.33795 24.1953 0 18 0C11.8047 0 6.69767 5.33795 6.69767 12.0385C6.69767 15.8421 7.63702 17.9987 8.82586 19.8599C9.12391 20.327 9.41693 20.7517 9.70158 21.1635C10.5388 22.3728 11.3023 23.4788 11.9085 25.2569C12.1111 25.8533 12.3773 26.4386 12.6971 26.9925L13.0688 31.0842C13.1923 32.4317 13.7651 33.6806 14.6762 34.5889C15.5873 35.4971 16.7718 36 18 36C19.2282 36 20.4127 35.4971 21.3238 34.5889C22.2349 33.6806 22.8077 32.4317 22.9312 31.0842L23.3029 26.9925ZM20.5233 29.8175L20.4329 30.8072C20.3736 31.4733 20.0916 32.0912 19.6419 32.5408C19.1922 32.9903 18.607 33.2393 18 33.2393C17.393 33.2393 16.8078 32.9903 16.3581 32.5408C15.9084 32.0912 15.6264 31.4733 15.5671 30.8072L15.4783 29.8175C16.2318 30.2274 17.0774 30.4656 18 30.4656C18.9209 30.4656 19.7682 30.2256 20.5217 29.8175M1.96409 1.41988C2.17755 1.13818 2.4837 0.961467 2.81526 0.928575C3.14682 0.895683 3.47666 1.00931 3.73228 1.24447L6.24391 3.55248C6.49065 3.79051 6.6432 4.12551 6.66896 4.48591C6.69472 4.84631 6.59166 5.20353 6.38177 5.48126C6.1719 5.75898 5.87185 5.93519 5.54573 5.97224C5.21961 6.00929 4.89329 5.90424 4.63647 5.67953L2.12484 3.37153C1.86913 3.13641 1.70855 2.79895 1.67841 2.43332C1.64827 2.0677 1.75103 1.70199 1.96409 1.41988ZM34.0326 1.42173C34.1383 1.56146 34.2181 1.72282 34.2672 1.89656C34.3164 2.07031 34.334 2.25304 34.3191 2.4343C34.3041 2.61556 34.257 2.79179 34.1802 2.95293C34.1035 3.11406 33.9987 3.25694 33.8718 3.37338L31.3602 5.68138C31.2342 5.80296 31.0873 5.89552 30.9284 5.95361C30.7694 6.0117 30.6016 6.03416 30.4346 6.01965C30.2677 6.00514 30.1051 5.95396 29.9563 5.86912C29.8076 5.78429 29.6758 5.66751 29.5686 5.52565C29.4614 5.3838 29.381 5.21974 29.3321 5.04312C29.2833 4.8665 29.2669 4.68089 29.2841 4.49721C29.3013 4.31353 29.3516 4.13549 29.4321 3.97357C29.5125 3.81164 29.6216 3.6691 29.7527 3.55432L32.2644 1.24632C32.5202 1.01137 32.8502 0.898057 33.1817 0.931296C33.5133 0.964535 33.8193 1.13976 34.0326 1.42173ZM0 11.0784C0 10.7111 0.132309 10.3589 0.367819 10.0992C0.60333 9.83951 0.922751 9.69361 1.25581 9.69361H4.60465C4.93771 9.69361 5.25713 9.83951 5.49265 10.0992C5.72816 10.3589 5.86047 10.7111 5.86047 11.0784C5.86047 11.4457 5.72816 11.7979 5.49265 12.0576C5.25713 12.3173 4.93771 12.4632 4.60465 12.4632H1.25581C0.922751 12.4632 0.60333 12.3173 0.367819 12.0576C0.132309 11.7979 0 11.4457 0 11.0784ZM30.1395 11.0784C30.1395 10.7111 30.2718 10.3589 30.5074 10.0992C30.7429 9.83951 31.0623 9.69361 31.3953 9.69361H34.7442C35.0772 9.69361 35.3967 9.83951 35.6322 10.0992C35.8677 10.3589 36 10.7111 36 11.0784C36 11.4457 35.8677 11.7979 35.6322 12.0576C35.3967 12.3173 35.0772 12.4632 34.7442 12.4632H31.3953C31.0623 12.4632 30.7429 12.3173 30.5074 12.0576C30.2718 11.7979 30.1395 11.4457 30.1395 11.0784ZM6.56372 17.8455C6.7126 18.1738 6.73714 18.5539 6.63196 18.9023C6.52677 19.2506 6.30047 19.5386 6.00279 19.7029L3.49116 21.0877C3.34346 21.1707 3.18233 21.2205 3.01708 21.2344C2.85182 21.2483 2.6857 21.226 2.5283 21.1688C2.37089 21.1116 2.22532 21.0206 2.09996 20.901C1.97461 20.7814 1.87196 20.6357 1.79793 20.4722C1.7239 20.3087 1.67995 20.1306 1.66862 19.9483C1.65729 19.766 1.6788 19.5829 1.73192 19.4098C1.78504 19.2367 1.8687 19.0769 1.9781 18.9396C2.08749 18.8023 2.22045 18.6902 2.3693 18.6099L4.88093 17.2251C5.17891 17.061 5.52378 17.0342 5.83968 17.1506C6.15557 17.2669 6.41495 17.5169 6.56372 17.8455ZM29.438 17.8455C29.5867 17.5174 29.8475 17.2678 30.163 17.1515C30.4785 17.0351 30.8229 17.0616 31.1207 17.2251L33.6324 18.6099C33.7812 18.6902 33.9142 18.8023 34.0236 18.9396C34.133 19.0769 34.2166 19.2367 34.2698 19.4098C34.3229 19.5829 34.3444 19.766 34.3331 19.9483C34.3217 20.1306 34.2778 20.3087 34.2037 20.4722C34.1297 20.6357 34.0271 20.7814 33.9017 20.901C33.7764 21.0206 33.6308 21.1116 33.4734 21.1688C33.316 21.226 33.1499 21.2483 32.9846 21.2344C32.8193 21.2205 32.6582 21.1707 32.5105 21.0877L29.9989 19.7029C29.7009 19.5389 29.4742 19.251 29.3687 18.9027C29.2632 18.5543 29.2892 18.1741 29.438 17.8455Z" fill="#007FFF"/>
</svg>
